<?xml version="1.0" encoding="UTF-8"?>
<svg version="1.1" xmlns="http://www.w3.org/2000/svg" width="94" height="94">
<path d="M0 0 C0.66 0.66 1.32 1.32 2 2 C3.93681136 2.27654388 3.93681136 2.27654388 6.1328125 2.1953125 C6.93847656 2.18886719 7.74414062 2.18242187 8.57421875 2.17578125 C9.41597656 2.15902344 10.25773437 2.14226563 11.125 2.125 C11.97449219 2.11597656 12.82398438 2.10695313 13.69921875 2.09765625 C15.79959884 2.07405647 17.89983444 2.03818483 20 2 C20.33 1.34 20.66 0.68 21 0 C28.3565486 -0.50464129 34.25304971 -0.80361743 40.51171875 3.41796875 C42.43407434 5.46141761 43.0464984 7.35670213 44 10 C45.12787793 12.58038886 46.31551816 15.13268667 47.5 17.6875 C47.80808594 18.36361328 48.11617188 19.03972656 48.43359375 19.73632812 C49.7343135 22.54152844 50.79576117 24.79576117 53 27 C55.37574616 35.62025327 56.50176084 44.06122355 56 53 C55.35933594 53.28875 54.71867187 53.5775 54.05859375 53.875 C51.84290382 54.82251568 51.84290382 54.82251568 51.0625 57 C49.5923651 59.76731275 47.90650489 60.05538591 45 61 C42.84188612 61.94729537 42.84188612 61.94729537 41 64 C36.19433294 65.69611779 32.0816782 66.20741544 27 66 C26.34 63.69 25.68 61.38 25 59 C24.67 59 24.34 59 24 59 C23.505 59.99 23.505 59.99 23 61 C19.97910522 61.02716089 16.95845871 61.04691657 13.9375 61.0625 C13.08994141 61.07087891 12.24238281 61.07925781 11.36914062 61.08789062 C6.4638278 61.10683006 1.83555245 60.83326345 -3 60 C-3.33 60.66 -3.66 61.32 -4 62 C-4.66 62.66 -5.32 63.32 -6 64 C-6.33 64.66 -6.66 65.32 -7 66 C-11.82360189 66.19294408 -15.49646738 65.75747614 -20 64 C-20 63.34 -20 62.68 -20 62 C-21.4540625 61.814375 -21.4540625 61.814375 -22.9375 61.625 C-23.948125 61.41875 -24.95875 61.2125 -26 61 C-26.33 60.34 -26.66 59.68 -27 59 C-27.66 58.67 -28.32 58.34 -29 58 C-31.62840896 55.75812177 -32.86426935 53.93697936 -33.36328125 50.4921875 C-33.56872526 42.38255556 -31.90855012 34.84002453 -30 27 C-29.62088402 25.31341993 -29.24524668 23.62604927 -28.875 21.9375 C-28.7203125 21.2465625 -28.565625 20.555625 -28.40625 19.84375 C-27.9049744 17.56872997 -27.442666 15.28710764 -27 13 C-26.34 13 -25.68 13 -25 13 C-23.07754384 10.35662278 -21.34256387 7.85640968 -20.125 4.8125 C-16.06677388 -1.7257532 -6.70678808 -0.713291 0 0 Z M4 3 C4 3.33 4 3.66 4 4 C8.29 4 12.58 4 17 4 C17 3.67 17 3.34 17 3 C12.71 3 8.42 3 4 3 Z M-27 16 C-26 18 -26 18 -26 18 Z M51 28 C52 31 52 31 52 31 Z M52 31 C52 32.65 52 34.3 52 36 C52.33 36 52.66 36 53 36 C53 34.35 53 32.7 53 31 C52.67 31 52.34 31 52 31 Z M53 37 C53 38.65 53 40.3 53 42 C53.33 42 53.66 42 54 42 C54 40.35 54 38.7 54 37 C53.67 37 53.34 37 53 37 Z M-3 58 C-3 58.33 -3 58.66 -3 59 C-0.36 59 2.28 59 5 59 C5 58.67 5 58.34 5 58 C2.36 58 -0.28 58 -3 58 Z M6 59 C6 59.33 6 59.66 6 60 C8.97 60 11.94 60 15 60 C15 59.67 15 59.34 15 59 C12.03 59 9.06 59 6 59 Z M-14 64 C-14 64.33 -14 64.66 -14 65 C-12.02 65 -10.04 65 -8 65 C-8 64.67 -8 64.34 -8 64 C-9.98 64 -11.96 64 -14 64 Z M28 64 C28 64.33 28 64.66 28 65 C29.98 65 31.96 65 34 65 C34 64.67 34 64.34 34 64 C32.02 64 30.04 64 28 64 Z " fill="#6965DC" transform="translate(37,15)"/>
<path d="M0 0 C0.66 0.66 1.32 1.32 2 2 C3.93681136 2.27654388 3.93681136 2.27654388 6.1328125 2.1953125 C6.93847656 2.18886719 7.74414062 2.18242187 8.57421875 2.17578125 C9.41597656 2.15902344 10.25773437 2.14226563 11.125 2.125 C11.97449219 2.11597656 12.82398438 2.10695313 13.69921875 2.09765625 C15.79959884 2.07405647 17.89983444 2.03818483 20 2 C20.33 1.34 20.66 0.68 21 0 C34.53040353 -0.92815268 34.53040353 -0.92815268 40.55859375 3.58984375 C42.5991892 5.58619865 43.24881551 7.24565688 44 10 C44.69911146 11.48354754 45.40841104 12.96231513 46.125 14.4375 C47.78429552 18.1125323 48.41889134 20.91580941 48 25 C46 22 46 22 44.5 18.875 C43.31101699 15.91129192 43.31101699 15.91129192 41 15 C40.505 13.515 40.505 13.515 40 12 C37.98491642 11.26676204 37.98491642 11.26676204 36 11 C36 10.34 36 9.68 36 9 C30.2564148 9.37014216 26.12189845 10.21635954 21 13 C15.71707717 14.95663809 11.4059058 15.5491232 6 14 C4.76814948 13.3113072 3.55841035 12.58145606 2.375 11.8125 C-0.79259899 9.68879224 -0.79259899 9.68879224 -3.875 10.375 C-12.79119825 15.01142309 -21.30149005 20.8502701 -26 30 C-26.33 30.61875 -26.66 31.2375 -27 31.875 C-28.4155501 34.88304395 -29.7046506 37.93826505 -31 41 C-31.33 41 -31.66 41 -32 41 C-32.57029933 34.86928224 -30.87273709 29.96177083 -28.875 24.18359375 C-27.85524028 21.0235823 -27.85524028 21.0235823 -28 17.72265625 C-28 15 -28 15 -26 13 C-23.92812103 10.5271122 -22.12477423 8.23820536 -20.625 5.375 C-15.93940507 -1.4731772 -7.50071736 -0.79772823 0 0 Z M4 3 C4 3.33 4 3.66 4 4 C8.29 4 12.58 4 17 4 C17 3.67 17 3.34 17 3 C12.71 3 8.42 3 4 3 Z M-27 16 C-26 18 -26 18 -26 18 Z " fill="#AEC9FE" transform="translate(37,15)"/>
<path d="M0 0 C0.33 0 0.66 0 1 0 C2.60881575 7.42640842 3.26442904 14.40501039 3 22 C2.35933594 22.28875 1.71867187 22.5775 1.05859375 22.875 C-1.15709618 23.82251568 -1.15709618 23.82251568 -1.9375 26 C-3.4076349 28.76731275 -5.09349511 29.05538591 -8 30 C-10.15811388 30.94729537 -10.15811388 30.94729537 -12 33 C-16.80566706 34.69611779 -20.9183218 35.20741544 -26 35 C-26.66 32.69 -27.32 30.38 -28 28 C-28.33 28 -28.66 28 -29 28 C-29.33 28.66 -29.66 29.32 -30 30 C-33.02089478 30.02716089 -36.04154129 30.04691657 -39.0625 30.0625 C-39.91005859 30.07087891 -40.75761719 30.07925781 -41.63085938 30.08789062 C-46.5361722 30.10683006 -51.16444755 29.83326345 -56 29 C-56.33 29.66 -56.66 30.32 -57 31 C-57.66 31.66 -58.32 32.32 -59 33 C-59.33 33.66 -59.66 34.32 -60 35 C-64.82360189 35.19294408 -68.49646738 34.75747614 -73 33 C-73 32.34 -73 31.68 -73 31 C-73.969375 30.87625 -74.93875 30.7525 -75.9375 30.625 C-77.4534375 30.315625 -77.4534375 30.315625 -79 30 C-79.33 29.34 -79.66 28.68 -80 28 C-80.66 27.67 -81.32 27.34 -82 27 C-84.77959995 24.13864711 -85.94530814 22.72466718 -86.25 18.6875 C-86.1675 17.800625 -86.085 16.91375 -86 16 C-85.01 16.33 -84.02 16.66 -83 17 C-83 17.66 -83 18.32 -83 19 C-82.154375 19.12375 -81.30875 19.2475 -80.4375 19.375 C-77 20 -77 20 -73.5625 21.1875 C-69.85756551 22.03248506 -68.59232566 21.6124999 -65.14453125 20.3828125 C-61.11740032 19.66394395 -57.15422064 20.7693356 -53.171875 21.48046875 C-46.44152217 22.60309734 -46.44152217 22.60309734 -40 21 C-38.64046816 21.11497098 -37.28574297 21.29074889 -35.9375 21.5 C-31.78629276 22.02979866 -28.0778242 21.83897511 -23.9453125 21.25390625 C-22 21 -22 21 -19 21 C-18.505 22.98 -18.505 22.98 -18 25 C-13.92035719 23.69844994 -13.92035719 23.69844994 -10 22 C-9.34 22.33 -8.68 22.66 -8 23 C-8 22.34 -8 21.68 -8 21 C-5.7272325 19.50475822 -3.4320057 18.21600285 -1 17 C-0.49307602 14.71395778 -0.49307602 14.71395778 -0.3125 12.0625 C-0.18294922 10.71865234 -0.18294922 10.71865234 -0.05078125 9.34765625 C0.18308427 6.97745895 0.18308427 6.97745895 -1 5 C-0.72057545 3.32345271 -0.39171753 1.65391846 0 0 Z M-56 27 C-56 27.33 -56 27.66 -56 28 C-53.36 28 -50.72 28 -48 28 C-48 27.67 -48 27.34 -48 27 C-50.64 27 -53.28 27 -56 27 Z M-47 28 C-47 28.33 -47 28.66 -47 29 C-44.03 29 -41.06 29 -38 29 C-38 28.67 -38 28.34 -38 28 C-40.97 28 -43.94 28 -47 28 Z M-67 33 C-67 33.33 -67 33.66 -67 34 C-65.02 34 -63.04 34 -61 34 C-61 33.67 -61 33.34 -61 33 C-62.98 33 -64.96 33 -67 33 Z M-25 33 C-25 33.33 -25 33.66 -25 34 C-23.02 34 -21.04 34 -19 34 C-19 33.67 -19 33.34 -19 33 C-20.98 33 -22.96 33 -25 33 Z " fill="#4946AD" transform="translate(90,46)"/>
<path d="M0 0 C1.2684375 0.5259375 1.2684375 0.5259375 2.5625 1.0625 C6.21937517 3.96924693 7.62934955 7.59594282 9 12 C9.25 15.5625 9.25 15.5625 9 18 C7 15 7 15 5.5 11.875 C4.31101699 8.91129192 4.31101699 8.91129192 2 8 C1.505 6.515 1.505 6.515 1 5 C-1.01508358 4.26676204 -1.01508358 4.26676204 -3 4 C-3 3.34 -3 2.68 -3 2 C-8.7435852 2.37014216 -12.87810155 3.21635954 -18 6 C-23.28292283 7.95663809 -27.5940942 8.5491232 -33 7 C-34.23185052 6.3113072 -35.44158965 5.58145606 -36.625 4.8125 C-39.79259899 2.68879224 -39.79259899 2.68879224 -42.875 3.375 C-51.79119825 8.01142309 -60.30149005 13.8502701 -65 23 C-65.33 23.61875 -65.66 24.2375 -66 24.875 C-67.4155501 27.88304395 -68.7046506 30.93826505 -70 34 C-70.33 34 -70.66 34 -71 34 C-71.35271406 28.35657506 -70.31078229 24.17092036 -68 19 C-67.58621094 17.99839844 -67.17242187 16.99679688 -66.74609375 15.96484375 C-62.62731323 6.72845037 -62.62731323 6.72845037 -58.25 4.5 C-56.84300781 3.97339064 -55.42521928 3.47507309 -54 3 C-53.15566406 2.62230469 -52.31132813 2.24460937 -51.44140625 1.85546875 C-43.96472551 -1.46626608 -43.96472551 -1.46626608 -39 0 C-38.505 0.495 -38.505 0.495 -38 1 C-34.73673357 1.25134544 -31.45930284 1.18522634 -28.1875 1.1875 C-27.27162109 1.19974609 -26.35574219 1.21199219 -25.41210938 1.22460938 C-24.08469727 1.22750977 -24.08469727 1.22750977 -22.73046875 1.23046875 C-21.91989014 1.23457764 -21.10931152 1.23868652 -20.27416992 1.24291992 C-17.76666724 0.9750761 -16.19143988 0.20936092 -14 -1 C-8.95056699 -2.1200889 -4.64581907 -2.5810106 0 0 Z " fill="#8BA6FC" transform="translate(76,22)"/>
<path d="M0 0 C0.99 0.33 1.98 0.66 3 1 C3 1.66 3 2.32 3 3 C4.2684375 3.185625 4.2684375 3.185625 5.5625 3.375 C9 4 9 4 12.4375 5.1875 C16.14243449 6.03248506 17.40767434 5.6124999 20.85546875 4.3828125 C24.88259968 3.66394395 28.84577936 4.7693356 32.828125 5.48046875 C39.55847783 6.60309734 39.55847783 6.60309734 46 5 C47.38031925 5.11454932 48.75593166 5.29010799 50.125 5.5 C54.64728266 6.07902809 58.51080385 5.73459573 63 5 C63.495 5.99 63.495 5.99 64 7 C58.15084718 8.67880013 52.94721281 9.32053454 46.875 9.25 C46.05257812 9.24540771 45.23015625 9.24081543 44.3828125 9.23608398 C36.20146093 9.11619034 27.80433098 8.60144366 20 6 C20.66 7.65 21.32 9.3 22 11 C22.66 10.34 23.32 9.68 24 9 C25.32 9.99 26.64 10.98 28 12 C27.125 17.875 27.125 17.875 26 19 C21.1784417 19.28362108 17.49507119 18.75417412 13 17 C13 16.34 13 15.68 13 15 C12.030625 14.87625 11.06125 14.7525 10.0625 14.625 C9.051875 14.41875 8.04125 14.2125 7 14 C6.67 13.34 6.34 12.68 6 12 C5.34 11.67 4.68 11.34 4 11 C1.22040005 8.13864711 0.05469186 6.72466718 -0.25 2.6875 C-0.1675 1.800625 -0.085 0.91375 0 0 Z M19 17 C19 17.33 19 17.66 19 18 C20.98 18 22.96 18 25 18 C25 17.67 25 17.34 25 17 C23.02 17 21.04 17 19 17 Z " fill="#4943B4" transform="translate(4,62)"/>
<path d="M0 0 C0.99 0 1.98 0 3 0 C3.495 1.98 3.495 1.98 4 4 C3.01 4.33 2.02 4.66 1 5 C1 4.34 1 3.68 1 3 C-4.31411494 4.92391649 -4.31411494 4.92391649 -8 9 C-9.86010742 9.35644531 -9.86010742 9.35644531 -12.10546875 9.328125 C-13.33426758 9.32039063 -13.33426758 9.32039063 -14.58789062 9.3125 C-15.44576172 9.291875 -16.30363281 9.27125 -17.1875 9.25 C-18.44530273 9.24226563 -18.44530273 9.24226563 -19.72851562 9.234375 C-24.57510335 9.17383995 -29.22053876 8.80196643 -34 8 C-34.33 8.66 -34.66 9.32 -35 10 C-35.680625 8.7625 -35.680625 8.7625 -36.375 7.5 C-37.179375 6.2625 -37.179375 6.2625 -38 5 C-38.66 5 -39.32 5 -40 5 C-40 5.66 -40 6.32 -40 7 C-41.32 6.34 -42.64 5.68 -44 5 C-44 3.68 -44 2.36 -44 1 C-43.01644531 1.144375 -42.03289063 1.28875 -41.01953125 1.4375 C-32.5996329 2.59244636 -24.31526209 3.19348628 -15.8125 3.1875 C-14.48665894 3.1884668 -14.48665894 3.1884668 -13.1340332 3.18945312 C-8.64975582 3.15170163 -4.41217219 2.90265389 0 2 C0 1.34 0 0.68 0 0 Z M-34 6 C-34 6.33 -34 6.66 -34 7 C-31.36 7 -28.72 7 -26 7 C-26 6.67 -26 6.34 -26 6 C-28.64 6 -31.28 6 -34 6 Z M-25 7 C-25 7.33 -25 7.66 -25 8 C-22.03 8 -19.06 8 -16 8 C-16 7.67 -16 7.34 -16 7 C-18.97 7 -21.94 7 -25 7 Z " fill="#322D73" transform="translate(68,67)"/>
<path d="M0 0 C2.84380195 2.61322341 3.8891602 4.22412143 4.4375 8.0625 C3.93947563 11.4063779 3.60055327 12.8188908 1 15 C-4.98458961 15.7480737 -4.98458961 15.7480737 -7.69140625 13.75390625 C-9.77659418 10.95913197 -9.4724249 8.47630966 -9.3515625 5.09765625 C-9 3 -9 3 -7.3125 0.9375 C-4.51380361 -0.19710664 -2.98324089 -0.59664818 0 0 Z " fill="#F1F3FC" transform="translate(63,43)"/>
<path d="M0 0 C2.54393252 3.81589878 2.57737956 6.5299647 2 11 C0.9375 13 0.9375 13 -1 14 C-4.5 14.5 -4.5 14.5 -8 14 C-10 11.9375 -10 11.9375 -11 9 C-10.88047234 5.53369777 -10.58243801 3.03544535 -8.875 0 C-5.75687573 -1.66299961 -3.31216241 -0.84309589 0 0 Z " fill="#E0E5EC" transform="translate(39,44)"/>
<path d="M0 0 C0.66 0.66 1.32 1.32 2 2 C3.93681136 2.27654388 3.93681136 2.27654388 6.1328125 2.1953125 C6.93847656 2.18886719 7.74414062 2.18242187 8.57421875 2.17578125 C9.41597656 2.15902344 10.25773437 2.14226563 11.125 2.125 C11.97449219 2.11597656 12.82398438 2.10695313 13.69921875 2.09765625 C15.79959884 2.07405647 17.89983444 2.03818483 20 2 C20.33 1.34 20.66 0.68 21 0 C22.98 0 24.96 0 27 0 C26.401875 0.2475 25.80375 0.495 25.1875 0.75 C22.85410229 1.81509993 22.85410229 1.81509993 21.96875 4.0625 C19.57899626 6.41432114 18.81565853 6.30267776 15.55078125 6.390625 C13.80426041 6.36406195 12.05796044 6.31639645 10.3125 6.25 C9.41982422 6.23195313 8.52714844 6.21390625 7.60742188 6.1953125 C5.40386496 6.14817759 3.20247399 6.08240657 1 6 C0.34 4.68 -0.32 3.36 -1 2 C-7.81279867 3.45516088 -13.42822107 4.74785292 -19 9 C-19.66 9 -20.32 9 -21 9 C-21.33 10.32 -21.66 11.64 -22 13 C-22.66 13 -23.32 13 -24 13 C-22.24434047 8.27322434 -20.71713589 4.31044581 -16.625 1.1875 C-11.18822259 -0.59351329 -5.67520507 -0.60357844 0 0 Z M4 3 C4 3.33 4 3.66 4 4 C8.29 4 12.58 4 17 4 C17 3.67 17 3.34 17 3 C12.71 3 8.42 3 4 3 Z " fill="#DEEBFE" transform="translate(37,15)"/>
<path d="M0 0 C-0.57105469 0.27457031 -1.14210938 0.54914062 -1.73046875 0.83203125 C-10.33191774 5.2585945 -18.50199411 11.24072538 -23 20 C-23.33 20.61875 -23.66 21.2375 -24 21.875 C-25.4155501 24.88304395 -26.7046506 27.93826505 -28 31 C-28.33 31 -28.66 31 -29 31 C-29.417537 24.31940796 -27.99351014 19.18961622 -24.4375 13.5 C-23.963125 13.005 -23.48875 12.51 -23 12 C-22.34 12 -21.68 12 -21 12 C-20.7525 11.4225 -20.505 10.845 -20.25 10.25 C-17.23342853 4.82017135 -12.55753924 2.04389357 -6.9375 -0.25 C-4.04422903 -0.98870748 -2.73759428 -1.05292088 0 0 Z " fill="#8A9FFC" transform="translate(34,25)"/>
<path d="M0 0 C8.1407141 0.88486023 15.8034184 3.02294175 23 7 C23 6.34 23 5.68 23 5 C23.99 5 24.98 5 26 5 C25.125 10.875 25.125 10.875 24 12 C19.1784417 12.28362108 15.49507119 11.75417412 11 10 C11 9.34 11 8.68 11 8 C10.030625 7.87625 9.06125 7.7525 8.0625 7.625 C7.051875 7.41875 6.04125 7.2125 5 7 C4.67 6.34 4.34 5.68 4 5 C3.34 4.67 2.68 4.34 2 4 C0.875 1.9375 0.875 1.9375 0 0 Z M17 10 C17 10.33 17 10.66 17 11 C18.98 11 20.96 11 23 11 C23 10.67 23 10.34 23 10 C21.02 10 19.04 10 17 10 Z " fill="#352F5C" transform="translate(6,69)"/>
<path d="M0 0 C-0.33 1.65 -0.66 3.3 -1 5 C-1.61875 5.12375 -2.2375 5.2475 -2.875 5.375 C-5.19120832 5.87197356 -5.19120832 5.87197356 -7 8 C-11.80566706 9.69611779 -15.9183218 10.20741544 -21 10 C-21.66 7.69 -22.32 5.38 -23 3 C-17.58461538 1.76923077 -17.58461538 1.76923077 -14.625 2.9375 C-14.08875 3.288125 -13.5525 3.63875 -13 4 C-13 3.34 -13 2.68 -13 2 C-8.46298506 0.54815522 -4.81938524 -0.23509196 0 0 Z M-20 8 C-20 8.33 -20 8.66 -20 9 C-18.02 9 -16.04 9 -14 9 C-14 8.67 -14 8.34 -14 8 C-15.98 8 -17.96 8 -20 8 Z " fill="#342E67" transform="translate(85,71)"/>
<path d="M0 0 C0.33 0.33 0.66 0.66 1 1 C2.34015221 1.15582303 3.68758903 1.25044142 5.03515625 1.31640625 C6.24848633 1.37924805 6.24848633 1.37924805 7.48632812 1.44335938 C8.33646484 1.48267578 9.18660156 1.52199219 10.0625 1.5625 C10.91650391 1.60568359 11.77050781 1.64886719 12.65039062 1.69335938 C14.76672037 1.79976702 16.88333813 1.90041731 19 2 C19 2.33 19 2.66 19 3 C17.87356079 2.97643433 17.87356079 2.97643433 16.72436523 2.95239258 C13.29548789 2.88972242 9.86673145 2.85090739 6.4375 2.8125 C5.25607422 2.78736328 4.07464844 2.76222656 2.85742188 2.73632812 C-6.62819097 2.65661709 -12.32265824 4.19934178 -20 10 C-22.32277416 12.6091387 -22.32277416 12.6091387 -24 15 C-24.66 14.67 -25.32 14.34 -26 14 C-24.09815657 7.81900886 -24.09815657 7.81900886 -21.37109375 5.78515625 C-19.28283301 4.73469782 -17.17490959 3.85678257 -15 3 C-14.15179688 2.61585937 -13.30359375 2.23171875 -12.4296875 1.8359375 C-4.92858309 -1.4555919 -4.92858309 -1.4555919 0 0 Z " fill="#97B6FE" transform="translate(37,22)"/>
<path d="M0 0 C1.52530878 0.11893246 3.04618522 0.29628137 4.5625 0.5 C9.28480941 1.03678049 13.32307325 0.77948779 18 0 C18.495 0.99 18.495 0.99 19 2 C13.15063959 3.67885971 7.94734249 4.3199334 1.875 4.25 C1.05475342 4.24613281 0.23450684 4.24226563 -0.6105957 4.23828125 C-7.8608508 4.13675089 -14.86244526 3.3040883 -22 2 C-22 1.67 -22 1.34 -22 1 C-21.36908447 1.00523682 -20.73816895 1.01047363 -20.08813477 1.01586914 C-17.24626653 1.03657826 -14.40441412 1.04964066 -11.5625 1.0625 C-10.56927734 1.07087891 -9.57605469 1.07925781 -8.55273438 1.08789062 C-7.60849609 1.09111328 -6.66425781 1.09433594 -5.69140625 1.09765625 C-4.81685791 1.10289307 -3.94230957 1.10812988 -3.04125977 1.11352539 C-1.00559794 1.22784809 -1.00559794 1.22784809 0 0 Z " fill="#3F36A1" transform="translate(49,67)"/>
<path d="M0 0 C-0.99 0.4125 -1.98 0.825 -3 1.25 C-11.63127525 4.62661501 -11.63127525 4.62661501 -18 11 C-18.66 11 -19.32 11 -20 11 C-20.27263672 11.92232422 -20.27263672 11.92232422 -20.55078125 12.86328125 C-20.80214844 13.67152344 -21.05351562 14.47976562 -21.3125 15.3125 C-21.55613281 16.11300781 -21.79976562 16.91351563 -22.05078125 17.73828125 C-23.04182023 20.09964573 -24.08074943 21.33879993 -26 23 C-25.88610125 21.20759337 -25.75852313 19.41605165 -25.625 17.625 C-25.55539063 16.62726562 -25.48578125 15.62953125 -25.4140625 14.6015625 C-25 12 -25 12 -23 10 C-21.68 10 -20.36 10 -19 10 C-18.90976562 9.39414062 -18.81953125 8.78828125 -18.7265625 8.1640625 C-17.39815329 4.20740281 -13.5623432 2.79699017 -10 1 C-6.35530905 -0.46650287 -3.86017677 -1.28672559 0 0 Z M-24 13 C-23 15 -23 15 -23 15 Z " fill="#BFD0FE" transform="translate(34,18)"/>
<path d="M0 0 C0.33 0 0.66 0 1 0 C1.21691118 3.18136394 1.25066255 5.43969547 -0.0625 8.375 C-2 10 -2 10 -5.5 10.4375 C-9 10 -9 10 -10.9375 8.625 C-12 7 -12 7 -12 5 C-10.8553125 5.0928125 -10.8553125 5.0928125 -9.6875 5.1875 C-6.46539649 4.96270208 -6.13914525 4.23215157 -4 2 C-2.68 2 -1.36 2 0 2 C0 1.34 0 0.68 0 0 Z " fill="#D7DBE1" transform="translate(66,48)"/>
<path d="M0 0 C0.671875 2.640625 0.671875 2.640625 1 5 C0.39414063 4.67386719 -0.21171875 4.34773438 -0.8359375 4.01171875 C-6.75531598 0.9245352 -12.54413955 -1.31048758 -19 -3 C-19 -3.33 -19 -3.66 -19 -4 C-11.17389357 -5.19381284 -6.44924426 -5.2766544 0 0 Z " fill="#BDD0FE" transform="translate(79,20)"/>
<path d="M0 0 C-0.33 1.65 -0.66 3.3 -1 5 C-1.66 4.67 -2.32 4.34 -3 4 C-3 3.67 -3 3.34 -3 3 C-7.44209357 2.89165625 -11.61414671 3.29826347 -16 4 C-16 4.66 -16 5.32 -16 6 C-19.62528568 6.20140476 -21.86501708 5.85776765 -25 4 C-23.02 3.01 -21.04 2.02 -19 1 C-19 1.66 -19 2.32 -19 3 C-17.96359375 2.7834375 -16.9271875 2.566875 -15.859375 2.34375 C-14.48962552 2.06229463 -13.11983149 1.781056 -11.75 1.5 C-10.72712891 1.28537109 -10.72712891 1.28537109 -9.68359375 1.06640625 C-6.35366879 0.38748951 -3.41667449 0 0 0 Z " fill="#3D3692" transform="translate(88,69)"/>
<path d="M0 0 C0.33 0.99 0.66 1.98 1 3 C1.66 3 2.32 3 3 3 C2.78233948 6.80905906 2.00605451 7.99366389 -0.6875 10.8125 C-4 13 -4 13 -7.0625 13.6875 C-11.3677543 12.67988729 -12.68409957 10.6781948 -15 7 C-15.3125 3.625 -15.3125 3.625 -15 1 C-14.67 1 -14.34 1 -14 1 C-13.71125 2.11375 -13.4225 3.2275 -13.125 4.375 C-12.30758671 8.00291092 -12.30758671 8.00291092 -10 10 C-6.5 10.41666667 -6.5 10.41666667 -3 10 C-0.70366176 6.55549263 -0.45983515 4.06187717 0 0 Z " fill="#544BB7" transform="translate(67,47)"/>
<path d="M0 0 C3.625 0.375 3.625 0.375 7 1 C6.875 2.875 6.875 2.875 6 5 C2.82254537 6.38150201 0.46877176 7 -3 7 C-2.25 2.25 -2.25 2.25 0 0 Z " fill="#F4F6FD" transform="translate(32,43)"/>
<path d="M0 0 C1.98 0 3.96 0 6 0 C5.401875 0.2475 4.80375 0.495 4.1875 0.75 C1.87167319 1.84789062 1.87167319 1.84789062 0.6875 4.0625 C-1 6 -1 6 -3.48046875 6.390625 C-4.82044922 6.32101563 -4.82044922 6.32101563 -6.1875 6.25 C-7.08855469 6.21390625 -7.98960938 6.1778125 -8.91796875 6.140625 C-9.94857422 6.07101563 -9.94857422 6.07101563 -11 6 C-11.33 5.34 -11.66 4.68 -12 4 C-14.52733235 3.34444881 -14.52733235 3.34444881 -17 3 C-17 2.67 -17 2.34 -17 2 C-11.72 2 -6.44 2 -1 2 C-0.67 1.34 -0.34 0.68 0 0 Z " fill="#EAF2FE" transform="translate(58,15)"/>
<path d="M0 0 C8.57142857 0.85714286 8.57142857 0.85714286 12 3 C12 3.33 12 3.66 12 4 C11.12988281 4.07347656 11.12988281 4.07347656 10.2421875 4.1484375 C5.56076908 4.59649405 1.42514541 5.298021 -3 7 C-2.01 4.69 -1.02 2.38 0 0 Z " fill="#A4C6FE" transform="translate(59,17)"/>
<path d="M0 0 C7.48263301 0.81332967 15.07200513 2.12132836 21 7 C19.33388095 7.042721 17.66617115 7.04063832 16 7 C15.67 6.67 15.34 6.34 15 6 C13.1746875 5.814375 13.1746875 5.814375 11.3125 5.625 C7.37372012 5.1786994 4.41756681 4.0838822 1 2 C0.67 1.34 0.34 0.68 0 0 Z " fill="#342D89" transform="translate(6,69)"/>
<path d="M0 0 C0 3 0 3 -1.8125 4.875 C-2.534375 5.57625 -3.25625 6.2775 -4 7 C-7.2965429 12.07160446 -9.65068835 17.44708156 -12 23 C-13 21 -13 21 -12.546875 19.046875 C-9.67551171 10.77059259 -7.00854002 5.41481722 0 0 Z " fill="#8890F7" transform="translate(18,33)"/>
<path d="M0 0 C0.8971875 0.309375 0.8971875 0.309375 1.8125 0.625 C-3.3364179 4.05761193 -8.26863952 6.007167 -14.5 5.375 C-18.1875 4.625 -18.1875 4.625 -20.1875 2.625 C-19.13949219 2.57601563 -18.09148438 2.52703125 -17.01171875 2.4765625 C-15.63278646 2.40151857 -14.2538815 2.32597143 -12.875 2.25 C-12.18470703 2.2190625 -11.49441406 2.188125 -10.78320312 2.15625 C-6.86693576 1.92922001 -3.42158009 -0.58655659 0 0 Z " fill="#869DFE" transform="translate(61.1875,24.375)"/>
<path d="M0 0 C0 0.33 0 0.66 0 1 C-1.98 1 -3.96 1 -6 1 C-5.34 2.65 -4.68 4.3 -4 6 C-3.34 5.34 -2.68 4.68 -2 4 C-1.01 4.99 -0.02 5.98 1 7 C0.34 7 -0.32 7 -1 7 C-1 7.66 -1 8.32 -1 9 C-3.9375 8.1875 -3.9375 8.1875 -7 7 C-7.33 6.01 -7.66 5.02 -8 4 C-8.66 4 -9.32 4 -10 4 C-9.1875 2.0625 -9.1875 2.0625 -8 0 C-4.71023192 -1.09658936 -3.28696233 -0.79953138 0 0 Z " fill="#514BAC" transform="translate(30,67)"/>
<path d="M0 0 C-0.5775 0.27328125 -1.155 0.5465625 -1.75 0.828125 C-4.68407351 2.35628828 -7.30661438 4.25704616 -10 6.171875 C-12 7 -12 7 -14.25 6.140625 C-14.8275 5.76421875 -15.405 5.3878125 -16 5 C-5.85 -2.25 -5.85 -2.25 0 0 Z " fill="#8DA2FE" transform="translate(34,25)"/>
<path d="M0 0 C0.33 0 0.66 0 1 0 C2.25 6.625 2.25 6.625 0 10 C-3.28706255 12.23050673 -6.08942968 12.40735108 -10 12 C-12.375 10.5 -12.375 10.5 -14 9 C-13.67 8.34 -13.34 7.68 -13 7 C-12.34 7.66 -11.68 8.32 -11 9 C-7.54213985 9.50007794 -7.54213985 9.50007794 -4 9 C-1.12362287 6.41126058 -0.52234147 3.76085859 0 0 Z " fill="#5149B9" transform="translate(42,48)"/>
<path d="M0 0 C0.66 0.33 1.32 0.66 2 1 C2 2.32 2 3.64 2 5 C1.21625 5.28875 0.4325 5.5775 -0.375 5.875 C-3.09671632 6.84912254 -3.09671632 6.84912254 -5 9 C-7.125 8.625 -7.125 8.625 -9 8 C-8.67 7.01 -8.34 6.02 -8 5 C-5.66666667 4.33333333 -3.33333333 3.66666667 -1 3 C-0.67 2.01 -0.34 1.02 0 0 Z " fill="#E7ECF2" transform="translate(64,45)"/>
<path d="M0 0 C-0.33 1.65 -0.66 3.3 -1 5 C-4.96 4.67 -8.92 4.34 -13 4 C-13 3.34 -13 2.68 -13 2 C-8.46298506 0.54815522 -4.81938524 -0.23509196 0 0 Z " fill="#342D82" transform="translate(85,71)"/>
<path d="M0 0 C0.33 0 0.66 0 1 0 C1.21691118 3.18136394 1.25066255 5.43969547 -0.0625 8.375 C-2.93947559 10.78794727 -5.37659799 10.2734643 -9 10 C-8.67 9.34 -8.34 8.68 -8 8 C-6.5459375 7.62875 -6.5459375 7.62875 -5.0625 7.25 C-1.69520182 6.2895788 -1.69520182 6.2895788 -0.625 2.875 C-0.41875 1.92625 -0.2125 0.9775 0 0 Z " fill="#BEC8D5" transform="translate(66,48)"/>
<path d="M0 0 C3.67230705 3.07999946 4.56802365 5.2482602 5 10 C4.67 10 4.34 10 4 10 C3.67 11.65 3.34 13.3 3 15 C-0.25195722 10.12206417 -0.11325659 5.77608621 0 0 Z " fill="#7A80E5" transform="translate(85,36)"/>
<path d="M0 0 C1.91789713 0.28346278 3.83429183 0.5771028 5.75 0.875 C7.35101563 1.11863281 7.35101563 1.11863281 8.984375 1.3671875 C11.67708871 1.93223882 13.63572439 2.63422914 16 4 C15.67 4.66 15.34 5.32 15 6 C10.05 4.68 5.1 3.36 0 2 C0 1.34 0 0.68 0 0 Z " fill="#3D36A3" transform="translate(6,67)"/>
<path d="M0 0 C-0.33 1.32 -0.66 2.64 -1 4 C-4.63 4 -8.26 4 -12 4 C-11.34 3.34 -10.68 2.68 -10 2 C-9.34 2.33 -8.68 2.66 -8 3 C-8 2.34 -8 1.68 -8 1 C-2.25 0 -2.25 0 0 0 Z " fill="#3F38A3" transform="translate(90,66)"/>
<path d="M0 0 C0.66 0 1.32 0 2 0 C0.125 3.875 0.125 3.875 -1 5 C-4.4375 5.25 -4.4375 5.25 -8 5 C-8.66 4.01 -9.32 3.02 -10 2 C-8.72125 2.04125 -7.4425 2.0825 -6.125 2.125 C-3.98128508 2.24212873 -3.98128508 2.24212873 -2 2 C-1.34 1.34 -0.68 0.68 0 0 Z " fill="#C1CAD2" transform="translate(39,53)"/>
<path d="M0 0 C-2.125 2.0625 -2.125 2.0625 -5 4 C-8.3125 3.75 -8.3125 3.75 -11 3 C-7.48550811 -0.37391222 -4.73940561 -0.27342725 0 0 Z " fill="#E2E5EA" transform="translate(41,50)"/>
<path d="M0 0 C1.37400775 3.12274488 0.92162365 4.20900359 -0.3125 7.5 C-1.52307728 10.01082696 -2.74920429 12.50933256 -4 15 C-3.63495936 9.33557626 -2.9445679 4.99296295 0 0 Z " fill="#ABADF2" transform="translate(9,39)"/>
<path d="M0 0 C3.63 0 7.26 0 11 0 C11 0.33 11 0.66 11 1 C10.39671875 1.13277344 9.7934375 1.26554687 9.171875 1.40234375 C8.37265625 1.57894531 7.5734375 1.75554688 6.75 1.9375 C5.96109375 2.11152344 5.1721875 2.28554688 4.359375 2.46484375 C2.23121297 2.947556 0.11467158 3.46163178 -2 4 C-1.34 2.68 -0.68 1.36 0 0 Z " fill="#94BCFF" transform="translate(58,20)"/>
<path d="M0 0 C0.33 0.66 0.66 1.32 1 2 C1.66 2 2.32 2 3 2 C2.67 2.99 2.34 3.98 2 5 C-0.31 4.67 -2.62 4.34 -5 4 C-3.74458443 1.48916886 -2.49936512 1.12874554 0 0 Z " fill="#6263A7" transform="translate(68,70)"/>
<path d="M0 0 C0.33 0.99 0.66 1.98 1 3 C1.66 3 2.32 3 3 3 C2.67 4.65 2.34 6.3 2 8 C1.01 8 0.02 8 -1 8 C-0.67 5.36 -0.34 2.72 0 0 Z " fill="#5448C7" transform="translate(67,47)"/>
<path d="M0 0 C0.33 0 0.66 0 1 0 C1 3.96 1 7.92 1 12 C-1.49388574 7.01222852 -0.88836125 5.33016752 0 0 Z " fill="#4A4A9D" transform="translate(2,56)"/>
<path d="M0 0 C0.33 0 0.66 0 1 0 C1 1.98 1 3.96 1 6 C0.67 6 0.34 6 0 6 C0 4.02 0 2.04 0 0 Z " fill="#6A6AE9" transform="translate(3,50)"/>
<path d="M0 0 C0.33 0.99 0.66 1.98 1 3 C0.34 3.66 -0.32 4.32 -1 5 C-0.67 3.35 -0.34 1.7 0 0 Z " fill="#9F9FFF" transform="translate(8,33)"/>
<path d="M0 0 C1.98 0 3.96 0 6 0 C6 0.33 6 0.66 6 1 C4.02 1 2.04 1 0 1 C0 0.67 0 0.34 0 0 Z " fill="#EBEBFF" transform="translate(58,13)"/>
<path d="M0 0 C1.98 0 3.96 0 6 0 C6 0.33 6 0.66 6 1 C4.02 1 2.04 1 0 1 C0 0.67 0 0.34 0 0 Z " fill="#E1EBFF" transform="translate(31,13)"/>
<path d="M0 0 C0.99 0.99 1.98 1.98 3 3 C2.01 2.67 1.02 2.34 0 2 C0 1.34 0 0.68 0 0 Z " fill="#222277" transform="translate(4,69)"/>
<path d="M0 0 C1 4 1 4 1 4 Z " fill="#8F8FE9" transform="translate(4,45)"/>
<path d="M0 0 C1 4 1 4 1 4 Z " fill="#AAAAFF" transform="translate(6,38)"/>
<path d="M0 0 C4 1 4 1 4 1 Z " fill="#DFDFFF" transform="translate(27,14)"/>
<path d="" fill="#CDCDFF" transform="translate(0,0)"/>
<path d="" fill="#4646FF" transform="translate(0,0)"/>
<path d="M0 0 C0.99 0.495 0.99 0.495 2 1 C1.01 1.495 1.01 1.495 0 2 C0 1.34 0 0.68 0 0 Z " fill="#8D8DFF" transform="translate(15,20)"/>
<path d="M0 0 C3 1 3 1 3 1 Z " fill="#B8D4FF" transform="translate(64,14)"/>
<path d="M0 0 C2 1 2 1 2 1 Z " fill="#2A2A4A" transform="translate(15,77)"/>
<path d="M0 0 C2 1 2 1 2 1 Z " fill="#2A006A" transform="translate(80,76)"/>
<path d="M0 0 C2 1 2 1 2 1 Z " fill="#00006A" transform="translate(13,76)"/>
<path d="" fill="#7FDFFF" transform="translate(0,0)"/>
<path d="" fill="#6A94FF" transform="translate(0,0)"/>
<path d="" fill="#D4D4FF" transform="translate(0,0)"/>
<path d="" fill="#AAAAFF" transform="translate(0,0)"/>
<path d="" fill="#FFFFFF" transform="translate(0,0)"/>
<path d="" fill="#3F6AFF" transform="translate(0,0)"/>
<path d="" fill="#FFFFFF" transform="translate(0,0)"/>
<path d="" fill="#7F7FFF" transform="translate(0,0)"/>
<path d="" fill="#FFFFFF" transform="translate(0,0)"/>
<path d="" fill="#000000" transform="translate(0,0)"/>
<path d="" fill="#00007F" transform="translate(0,0)"/>
<path d="" fill="#000000" transform="translate(0,0)"/>
<path d="" fill="#00007F" transform="translate(0,0)"/>
<path d="" fill="#555555" transform="translate(0,0)"/>
<path d="" fill="#3F3F7F" transform="translate(0,0)"/>
<path d="" fill="#3F3F7F" transform="translate(0,0)"/>
<path d="" fill="#7F7F7F" transform="translate(0,0)"/>
<path d="" fill="#3F3F7F" transform="translate(0,0)"/>
<path d="" fill="#00007F" transform="translate(0,0)"/>
<path d="" fill="#3F3F3F" transform="translate(0,0)"/>
<path d="" fill="#00007F" transform="translate(0,0)"/>
<path d="" fill="#FFFFFF" transform="translate(0,0)"/>
<path d="" fill="#AAFFFF" transform="translate(0,0)"/>
<path d="" fill="#AAFFFF" transform="translate(0,0)"/>
<path d="" fill="#7F7FFF" transform="translate(0,0)"/>
<path d="" fill="#FFFFFF" transform="translate(0,0)"/>
</svg>
